<svg width="25" height="25" viewBox="0 0 25 25" fill="none" xmlns="http://www.w3.org/2000/svg">
<path d="M20.1094 22.3916V19.3916C20.1094 16.5636 20.1094 15.1486 19.2304 14.2706C18.3524 13.3916 16.9374 13.3916 14.1094 13.3916L12.1094 15.3916L10.1094 13.3916C7.28137 13.3916 5.86638 13.3916 4.98838 14.2706C4.10938 15.1486 4.10938 16.5636 4.10938 19.3916V22.3916M16.1094 13.3916V18.8916" stroke="#3C4043" stroke-width="2" stroke-linecap="round" stroke-linejoin="round"/>
<path d="M8.60938 13.3916V17.3916M8.60938 17.3916C9.13981 17.3916 9.64852 17.6023 10.0236 17.9774C10.3987 18.3525 10.6094 18.8612 10.6094 19.3916V20.3916M8.60938 17.3916C8.07894 17.3916 7.57023 17.6023 7.19516 17.9774C6.82009 18.3525 6.60938 18.8612 6.60938 19.3916V20.3916M15.6094 6.8916V5.8916C15.6094 5.43198 15.5188 4.97685 15.343 4.55221C15.1671 4.12757 14.9093 3.74173 14.5842 3.41673C14.2592 3.09172 13.8734 2.83391 13.4488 2.65802C13.0241 2.48213 12.569 2.3916 12.1094 2.3916C11.6497 2.3916 11.1946 2.48213 10.77 2.65802C10.3453 2.83391 9.95951 3.09172 9.6345 3.41673C9.3095 3.74173 9.05169 4.12757 8.8758 4.55221C8.6999 4.97685 8.60937 5.43198 8.60938 5.8916V6.8916C8.60937 7.35123 8.6999 7.80635 8.8758 8.23099C9.05169 8.65563 9.3095 9.04147 9.6345 9.36648C9.95951 9.69148 10.3453 9.94929 10.77 10.1252C11.1946 10.3011 11.6497 10.3916 12.1094 10.3916C12.569 10.3916 13.0241 10.3011 13.4488 10.1252C13.8734 9.94929 14.2592 9.69148 14.5842 9.36648C14.9093 9.04147 15.1671 8.65563 15.343 8.23099C15.5188 7.80635 15.6094 7.35123 15.6094 6.8916ZM16.8594 19.6416C16.8594 19.8405 16.7804 20.0313 16.6397 20.1719C16.4991 20.3126 16.3083 20.3916 16.1094 20.3916C15.9105 20.3916 15.7197 20.3126 15.579 20.1719C15.4384 20.0313 15.3594 19.8405 15.3594 19.6416C15.3594 19.4427 15.4384 19.2519 15.579 19.1113C15.7197 18.9706 15.9105 18.8916 16.1094 18.8916C16.3083 18.8916 16.4991 18.9706 16.6397 19.1113C16.7804 19.2519 16.8594 19.4427 16.8594 19.6416Z" stroke="#3C4043" stroke-width="2" stroke-linecap="round" stroke-linejoin="round"/>
</svg>
