<svg width="19" height="23" viewBox="0 0 19 23" fill="none" xmlns="http://www.w3.org/2000/svg">
<path d="M6.2105 5.16683C6.14454 4.91954 6.10938 4.65968 6.10938 4.3916C6.10938 2.73475 7.45252 1.3916 9.10938 1.3916C10.7662 1.3916 12.1094 2.73475 12.1094 4.3916C12.1094 4.65968 12.0742 4.91954 12.0083 5.16683M6.2105 5.16683C7.04875 4.6759 8.04309 4.3916 9.10937 4.3916C10.1757 4.3916 11.17 4.6759 12.0083 5.16683M6.2105 5.16683C6.14181 5.20707 6.07416 5.24869 6.00761 5.29165C4.60742 6.19559 3.69171 7.6949 3.69171 9.3916V10.0309C3.69171 11.5834 3.30007 13.1145 2.5478 14.5031L1.22516 16.9444C0.864944 17.6093 1.38883 18.3916 2.19431 18.3916H6.10938M12.0083 5.16683C12.0769 5.20707 12.1446 5.24869 12.2111 5.29165C13.6113 6.19559 14.527 7.6949 14.527 9.3916V10.0309C14.527 11.5834 14.9187 13.1145 15.671 14.5031L16.9936 16.9444C17.3538 17.6093 16.8299 18.3916 16.0244 18.3916H12.1094M12.1094 18.3916C12.1094 20.0485 10.7662 21.3916 9.10938 21.3916C7.45252 21.3916 6.10938 20.0485 6.10938 18.3916M12.1094 18.3916H6.10938" stroke="#3C4043" stroke-width="2"/>
</svg>
